<svg xmlns="http://www.w3.org/2000/svg" viewBox="0 0 800 600">
  <defs>
    <style>
      text { font-family: 'Inter', -apple-system, sans-serif; fill: #e2e8f5; }
      .title { font-size: 22px; font-weight: 700; fill: #00e5cc; }
      .subtitle { font-size: 12px; fill: #94a3b8; }
      .label { font-size: 10.5px; font-weight: 600; }
      .age-label { font-size: 9px; fill: #64748b; }
      .bar-text { font-size: 9px; fill: #050810; font-weight: 700; }
      .legend-text { font-size: 9px; fill: #94a3b8; }
    </style>
    <filter id="glow">
      <feGaussianBlur stdDeviation="2" result="blur"/>
      <feMerge><feMergeNode in="blur"/><feMergeNode in="SourceGraphic"/></feMerge>
    </filter>
  </defs>

  <!-- Background -->
  <rect width="800" height="600" fill="#050810" rx="0"/>

  <!-- Title -->
  <text x="400" y="30" text-anchor="middle" class="title" filter="url(#glow)">Childhood Immunization Schedule</text>
  <text x="400" y="46" text-anchor="middle" class="subtitle">CDC Recommended Schedule (Birth — 18 Years)</text>

  <!-- Age axis -->
  <text x="120" y="62" class="age-label">Age ▶</text>
  <text x="156" y="62" class="age-label">Birth</text>
  <text x="189" y="62" class="age-label">2mo</text>
  <text x="222" y="62" class="age-label">4mo</text>
  <text x="255" y="62" class="age-label">6mo</text>
  <text x="288" y="62" class="age-label">9mo</text>
  <text x="321" y="62" class="age-label">12mo</text>
  <text x="354" y="62" class="age-label">15mo</text>
  <text x="387" y="62" class="age-label">18mo</text>
  <text x="420" y="62" class="age-label">19-23mo</text>
  <text x="470" y="62" class="age-label">2-3yr</text>
  <text x="518" y="62" class="age-label">4-6yr</text>
  <text x="566" y="62" class="age-label">7-10yr</text>
  <text x="618" y="62" class="age-label">11-12yr</text>
  <text x="670" y="62" class="age-label">13-15yr</text>
  <text x="722" y="62" class="age-label">16-18yr</text>

  <!-- Grid lines -->
  <line x1="140" y1="60" x2="140" y2="560" stroke="#1e293b" stroke-width="1"/>
  <line x1="180" y1="60" x2="180" y2="560" stroke="#1e293b" stroke-width="1"/>
  <line x1="220" y1="60" x2="220" y2="560" stroke="#1e293b" stroke-width="1"/>
  <line x1="260" y1="60" x2="260" y2="560" stroke="#1e293b" stroke-width="1"/>
  <line x1="300" y1="60" x2="300" y2="560" stroke="#1e293b" stroke-width="1"/>
  <line x1="340" y1="60" x2="340" y2="560" stroke="#1e293b" stroke-width="1"/>
  <line x1="380" y1="60" x2="380" y2="560" stroke="#1e293b" stroke-width="1"/>
  <line x1="420" y1="60" x2="420" y2="560" stroke="#1e293b" stroke-width="1"/>
  <line x1="460" y1="60" x2="460" y2="560" stroke="#1e293b" stroke-width="1"/>
  <line x1="510" y1="60" x2="510" y2="560" stroke="#1e293b" stroke-width="1"/>
  <line x1="560" y1="60" x2="560" y2="560" stroke="#1e293b" stroke-width="1"/>
  <line x1="610" y1="60" x2="610" y2="560" stroke="#1e293b" stroke-width="1"/>
  <line x1="660" y1="60" x2="660" y2="560" stroke="#1e293b" stroke-width="1"/>
  <line x1="710" y1="60" x2="710" y2="560" stroke="#1e293b" stroke-width="1"/>
  <line x1="755" y1="60" x2="755" y2="560" stroke="#1e293b" stroke-width="1"/>

  <!-- Background banding for rows -->
  <rect x="20" y="67" width="760" height="28" fill="rgba(30,41,59,0.3)"/>
  <rect x="20" y="123" width="760" height="28" fill="rgba(30,41,59,0.3)"/>
  <rect x="20" y="179" width="760" height="28" fill="rgba(30,41,59,0.3)"/>
  <rect x="20" y="235" width="760" height="28" fill="rgba(30,41,59,0.3)"/>
  <rect x="20" y="291" width="760" height="28" fill="rgba(30,41,59,0.3)"/>
  <rect x="20" y="347" width="760" height="28" fill="rgba(30,41,59,0.3)"/>
  <rect x="20" y="403" width="760" height="28" fill="rgba(30,41,59,0.3)"/>
  <rect x="20" y="459" width="760" height="28" fill="rgba(30,41,59,0.3)"/>
  <rect x="20" y="515" width="760" height="28" fill="rgba(30,41,59,0.3)"/>

  <!-- Row 1: HepB -->
  <text x="110" y="85" text-anchor="end" class="label" fill="#38bdf8">HepB</text>
  <rect x="145" y="72" width="32" height="18" rx="4" fill="#38bdf8"/>
  <rect x="185" y="72" width="75" height="18" rx="4" fill="#38bdf8" opacity="0.6"/>
  <text x="162" y="84" text-anchor="middle" class="bar-text" fill="#050810">1</text>
  <text x="222" y="84" text-anchor="middle" class="bar-text" fill="#050810" opacity="0.6">2-3</text>

  <!-- Row 2: RV -->
  <text x="110" y="113" text-anchor="end" class="label" fill="#22c55e">RV</text>
  <rect x="185" y="100" width="38" height="18" rx="4" fill="#22c55e"/>
  <rect x="225" y="100" width="38" height="18" rx="4" fill="#22c55e"/>
  <rect x="265" y="100" width="38" height="18" rx="4" fill="#22c55e"/>
  <text x="205" y="112" text-anchor="middle" class="bar-text" fill="#050810">1</text>
  <text x="245" y="112" text-anchor="middle" class="bar-text" fill="#050810">2</text>
  <text x="285" y="112" text-anchor="middle" class="bar-text" fill="#050810">3</text>

  <!-- Row 3: DTaP -->
  <text x="110" y="141" text-anchor="end" class="label" fill="#f5b731">DTaP</text>
  <rect x="185" y="128" width="38" height="18" rx="4" fill="#f5b731"/>
  <rect x="225" y="128" width="38" height="18" rx="4" fill="#f5b731"/>
  <rect x="265" y="128" width="38" height="18" rx="4" fill="#f5b731"/>
  <rect x="345" y="128" width="38" height="18" rx="4" fill="#f5b731"/>
  <rect x="513" y="128" width="48" height="18" rx="4" fill="#f5b731"/>
  <text x="205" y="140" text-anchor="middle" class="bar-text" fill="#050810">1</text>
  <text x="245" y="140" text-anchor="middle" class="bar-text" fill="#050810">2</text>
  <text x="285" y="140" text-anchor="middle" class="bar-text" fill="#050810">3</text>
  <text x="365" y="140" text-anchor="middle" class="bar-text" fill="#050810">4</text>
  <text x="538" y="140" text-anchor="middle" class="bar-text" fill="#050810">5</text>

  <!-- Row 4: IPV -->
  <text x="110" y="169" text-anchor="end" class="label" fill="#a78bfa">IPV</text>
  <rect x="185" y="156" width="38" height="18" rx="4" fill="#a78bfa"/>
  <rect x="225" y="156" width="38" height="18" rx="4" fill="#a78bfa"/>
  <rect x="345" y="156" width="38" height="18" rx="4" fill="#a78bfa"/>
  <rect x="513" y="156" width="48" height="18" rx="4" fill="#a78bfa"/>
  <text x="205" y="168" text-anchor="middle" class="bar-text" fill="#050810">1</text>
  <text x="245" y="168" text-anchor="middle" class="bar-text" fill="#050810">2</text>
  <text x="365" y="168" text-anchor="middle" class="bar-text" fill="#050810">3</text>
  <text x="538" y="168" text-anchor="middle" class="bar-text" fill="#050810">4</text>

  <!-- Row 5: Hib -->
  <text x="110" y="197" text-anchor="end" class="label" fill="#ff4d6d">Hib</text>
  <rect x="185" y="184" width="38" height="18" rx="4" fill="#ff4d6d"/>
  <rect x="225" y="184" width="38" height="18" rx="4" fill="#ff4d6d"/>
  <rect x="265" y="184" width="75" height="18" rx="4" fill="#ff4d6d"/>
  <rect x="345" y="184" width="38" height="18" rx="4" fill="#ff4d6d"/>
  <text x="205" y="196" text-anchor="middle" class="bar-text" fill="#050810">1</text>
  <text x="245" y="196" text-anchor="middle" class="bar-text" fill="#050810">2</text>
  <text x="303" y="196" text-anchor="middle" class="bar-text" fill="#050810">3</text>
  <text x="365" y="196" text-anchor="middle" class="bar-text" fill="#050810">4</text>

  <!-- Row 6: PCV13 -->
  <text x="110" y="225" text-anchor="end" class="label" fill="#fb923c">PCV13</text>
  <rect x="185" y="212" width="38" height="18" rx="4" fill="#fb923c"/>
  <rect x="225" y="212" width="38" height="18" rx="4" fill="#fb923c"/>
  <rect x="265" y="212" width="38" height="18" rx="4" fill="#fb923c"/>
  <rect x="345" y="212" width="38" height="18" rx="4" fill="#fb923c"/>
  <text x="205" y="224" text-anchor="middle" class="bar-text" fill="#050810">1</text>
  <text x="245" y="224" text-anchor="middle" class="bar-text" fill="#050810">2</text>
  <text x="285" y="224" text-anchor="middle" class="bar-text" fill="#050810">3</text>
  <text x="365" y="224" text-anchor="middle" class="bar-text" fill="#050810">4</text>

  <!-- Row 7: MMR -->
  <text x="110" y="253" text-anchor="end" class="label" fill="#00e5cc">MMR</text>
  <rect x="345" y="240" width="38" height="18" rx="4" fill="#00e5cc"/>
  <rect x="513" y="240" width="48" height="18" rx="4" fill="#00e5cc"/>
  <text x="365" y="252" text-anchor="middle" class="bar-text" fill="#050810">1</text>
  <text x="538" y="252" text-anchor="middle" class="bar-text" fill="#050810">2</text>

  <!-- Row 8: VAR -->
  <text x="110" y="281" text-anchor="end" class="label" fill="#34d399">VAR</text>
  <rect x="345" y="268" width="38" height="18" rx="4" fill="#34d399"/>
  <rect x="513" y="268" width="48" height="18" rx="4" fill="#34d399"/>
  <text x="365" y="280" text-anchor="middle" class="bar-text" fill="#050810">1</text>
  <text x="538" y="280" text-anchor="middle" class="bar-text" fill="#050810">2</text>

  <!-- Row 9: HepA -->
  <text x="110" y="309" text-anchor="end" class="label" fill="#f472b6">HepA</text>
  <rect x="345" y="296" width="75" height="18" rx="4" fill="#f472b6"/>
  <text x="383" y="308" text-anchor="middle" class="bar-text" fill="#050810">2-dose series</text>

  <!-- Row 10: Tdap -->
  <text x="110" y="337" text-anchor="end" class="label" fill="#f5b731">Tdap</text>
  <rect x="663" y="324" width="48" height="18" rx="4" fill="#f5b731"/>
  <rect x="745" y="324" width="16" height="18" rx="4" fill="#f5b731" opacity="0.5"/>
  <text x="688" y="336" text-anchor="middle" class="bar-text" fill="#050810">Tdap</text>

  <!-- Row 11: HPV -->
  <text x="110" y="365" text-anchor="end" class="label" fill="#a78bfa">HPV</text>
  <rect x="663" y="352" width="95" height="18" rx="4" fill="#a78bfa"/>
  <text x="712" y="364" text-anchor="middle" class="bar-text" fill="#050810">2-3 doses</text>

  <!-- Row 12: MenACWY -->
  <text x="110" y="393" text-anchor="end" class="label" fill="#38bdf8">MenACWY</text>
  <rect x="663" y="380" width="48" height="18" rx="4" fill="#38bdf8"/>
  <rect x="745" y="380" width="16" height="18" rx="4" fill="#38bdf8" opacity="0.5"/>
  <text x="688" y="392" text-anchor="middle" class="bar-text" fill="#050810">1</text>

  <!-- Row 13: MenB (optional) -->
  <text x="110" y="421" text-anchor="end" class="label" fill="#64748b">MenB</text>
  <rect x="710" y="408" width="50" height="18" rx="4" fill="#64748b"/>
  <text x="750" y="422" text-anchor="middle" class="bar-text" fill="#050810">16-18</text>

  <!-- Row 14: Influenza -->
  <text x="110" y="449" text-anchor="end" class="label" fill="#22c55e">Flu</text>
  <rect x="265" y="436" width="460" height="18" rx="4" fill="#22c55e"/>
  <text x="496" y="449" text-anchor="middle" class="bar-text" fill="#050810">Annual (starting at 6 months)</text>

  <!-- Row 15: COVID-19 -->
  <text x="110" y="477" text-anchor="end" class="label" fill="#94a3b8">COVID-19</text>
  <rect x="265" y="464" width="460" height="18" rx="4" fill="#94a3b8"/>
  <text x="496" y="477" text-anchor="middle" class="bar-text" fill="#050810">Per current recommendations</text>

  <!-- Row 16: RSV -->
  <text x="110" y="505" text-anchor="end" class="label" fill="#fbbf24">RSV</text>
  <rect x="185" y="492" width="38" height="18" rx="4" fill="#fbbf24"/>
  <rect x="745" y="492" width="16" height="18" rx="4" fill="#fbbf24" opacity="0.5"/>
  <text x="205" y="505" text-anchor="middle" class="bar-text" fill="#050810">Nirsevimab</text>

  <!-- Legend -->
  <rect x="20" y="530" width="760" height="55" rx="6" fill="#0f172a" stroke="#1e293b" stroke-width="1"/>
  <rect x="30" y="540" width="12" height="12" rx="2" fill="#38bdf8"/>
  <text x="46" y="551" class="legend-text">HepB</text>
  <rect x="90" y="540" width="12" height="12" rx="2" fill="#22c55e"/>
  <text x="106" y="551" class="legend-text">RV</text>
  <rect x="135" y="540" width="12" height="12" rx="2" fill="#f5b731"/>
  <text x="151" y="551" class="legend-text">DTaP</text>
  <rect x="190" y="540" width="12" height="12" rx="2" fill="#a78bfa"/>
  <text x="206" y="551" class="legend-text">IPV</text>
  <rect x="240" y="540" width="12" height="12" rx="2" fill="#ff4d6d"/>
  <text x="256" y="551" class="legend-text">Hib</text>
  <rect x="290" y="540" width="12" height="12" rx="2" fill="#fb923c"/>
  <text x="306" y="551" class="legend-text">PCV13</text>
  <rect x="350" y="540" width="12" height="12" rx="2" fill="#00e5cc"/>
  <text x="366" y="551" class="legend-text">MMR</text>
  <rect x="410" y="540" width="12" height="12" rx="2" fill="#34d399"/>
  <text x="426" y="551" class="legend-text">VAR</text>
  <rect x="465" y="540" width="12" height="12" rx="2" fill="#f472b6"/>
  <text x="481" y="551" class="legend-text">HepA</text>
  <rect x="525" y="540" width="12" height="12" rx="2" fill="#f5b731"/>
  <text x="541" y="551" class="legend-text">Tdap</text>
  <rect x="580" y="540" width="12" height="12" rx="2" fill="#a78bfa"/>
  <text x="596" y="551" class="legend-text">HPV</text>
  <rect x="635" y="540" width="12" height="12" rx="2" fill="#38bdf8"/>
  <text x="651" y="551" class="legend-text">MenACWY</text>
  <rect x="710" y="540" width="12" height="12" rx="2" fill="#22c55e"/>
  <text x="726" y="551" class="legend-text">Flu</text>
</svg>
